<svg width="34" height="35" viewBox="0 0 34 35" fill="none" xmlns="http://www.w3.org/2000/svg">
<path fill-rule="evenodd" clip-rule="evenodd" d="M14.4149 10.3218C13.6561 12.0663 12.1386 13.4232 10.4314 13.4232L4.93047 13.8109C4.36141 13.8109 3.98203 14.7801 4.5511 15.1677L8.34486 18.463C9.86236 19.626 10.4314 21.7582 10.0521 23.6966L8.91392 29.124C8.72424 29.8993 9.48299 30.287 10.0521 29.8993L14.4149 26.6041C16.1221 25.4411 18.2086 25.4411 19.7262 26.6041L24.089 29.8993C24.658 30.287 25.4168 29.7055 25.2271 29.124L24.089 23.6966C23.7096 21.7582 24.2787 19.626 25.7962 18.463L29.5899 15.1677C30.159 14.7801 29.7796 13.8109 29.2106 13.8109L23.7096 13.4232C22.0024 13.2294 20.2952 12.0663 19.7262 10.3218L17.8293 5.08822C17.6396 4.50671 16.6911 4.50671 16.5015 5.08822L14.4149 10.3218ZM21.623 3.34369L23.5199 8.57728C23.5199 8.77112 23.7096 8.96496 23.8993 8.96496L29.4002 9.35263C33.9528 9.7403 35.66 15.9431 32.0559 19.0445L28.2621 22.3397C28.0724 22.5335 28.0724 22.7274 28.0724 22.9212L29.2106 28.3486C30.159 33.1946 25.2271 36.8775 21.623 33.9699L17.2602 30.6747C17.0705 30.4808 16.8808 30.4808 16.6911 30.6747L12.3283 33.9699C8.53455 36.8775 3.60265 33.1946 4.74078 28.3486L5.87891 22.9212C5.87891 22.7274 5.87891 22.5335 5.68922 22.3397L1.89546 19.0445C-1.70861 15.9431 0.188266 9.7403 4.5511 9.35263L10.0521 8.96496C10.2417 8.96496 10.4314 8.77112 10.4314 8.57728L12.3283 3.34369C14.2252 -1.11456 19.9158 -1.11456 21.623 3.34369Z" fill="url(#paint0_linear_627_1582)"/>
<path fill-rule="evenodd" clip-rule="evenodd" d="M14.4149 10.3218C13.6561 12.0663 12.1386 13.4232 10.4314 13.4232L4.93047 13.8109C4.36141 13.8109 3.98203 14.7801 4.5511 15.1677L8.34486 18.463C9.86236 19.626 10.4314 21.7582 10.0521 23.6966L8.91392 29.124C8.72424 29.8993 9.48299 30.287 10.0521 29.8993L14.4149 26.6041C16.1221 25.4411 18.2086 25.4411 19.7262 26.6041L24.089 29.8993C24.658 30.287 25.4168 29.7055 25.2271 29.124L24.089 23.6966C23.7096 21.7582 24.2787 19.626 25.7962 18.463L29.5899 15.1677C30.159 14.7801 29.7796 13.8109 29.2106 13.8109L23.7096 13.4232C22.0024 13.2294 20.2952 12.0663 19.7262 10.3218L17.8293 5.08822C17.6396 4.50671 16.6911 4.50671 16.5015 5.08822L14.4149 10.3218ZM21.623 3.34369L23.5199 8.57728C23.5199 8.77112 23.7096 8.96496 23.8993 8.96496L29.4002 9.35263C33.9528 9.7403 35.66 15.9431 32.0559 19.0445L28.2621 22.3397C28.0724 22.5335 28.0724 22.7274 28.0724 22.9212L29.2106 28.3486C30.159 33.1946 25.2271 36.8775 21.623 33.9699L17.2602 30.6747C17.0705 30.4808 16.8808 30.4808 16.6911 30.6747L12.3283 33.9699C8.53455 36.8775 3.60265 33.1946 4.74078 28.3486L5.87891 22.9212C5.87891 22.7274 5.87891 22.5335 5.68922 22.3397L1.89546 19.0445C-1.70861 15.9431 0.188266 9.7403 4.5511 9.35263L10.0521 8.96496C10.2417 8.96496 10.4314 8.77112 10.4314 8.57728L12.3283 3.34369C14.2252 -1.11456 19.9158 -1.11456 21.623 3.34369Z" fill="white"/>
<defs>
<linearGradient id="paint0_linear_627_1582" x1="17.0705" y1="0.0484592" x2="17.0705" y2="34.8575" gradientUnits="userSpaceOnUse">
<stop stop-color="#EAAF59"/>
<stop offset="1" stop-color="#D96D40"/>
</linearGradient>
</defs>
</svg>
