<svg width="151" height="32" viewBox="0 0 151 32" fill="none" xmlns="http://www.w3.org/2000/svg">
<rect width="151" height="32" rx="3" fill="#EA894C"/>
<path fill-rule="evenodd" clip-rule="evenodd" d="M53.4939 18.4049H59.5061C61.1663 18.4049 62.5122 19.7508 62.5122 21.4111C62.5122 21.7431 62.2431 22.0123 61.911 22.0123C61.6027 22.0123 61.3486 21.7802 61.3138 21.4812L61.3067 21.3051C61.2539 20.3933 60.5239 19.6633 59.6121 19.6105L59.5061 19.6074H53.4939C52.4977 19.6074 51.6902 20.4149 51.6902 21.4111C51.6902 21.7431 51.421 22.0123 51.089 22.0123C50.7569 22.0123 50.4877 21.7431 50.4877 21.4111C50.4877 19.7945 51.7637 18.476 53.3635 18.4077L53.4939 18.4049H59.5061H53.4939ZM56.5 9.98779C58.4923 9.98779 60.1074 11.6029 60.1074 13.5951C60.1074 15.5874 58.4923 17.2025 56.5 17.2025C54.5077 17.2025 52.8927 15.5874 52.8927 13.5951C52.8927 11.6029 54.5077 9.98779 56.5 9.98779ZM56.4999 11.1902C55.1717 11.1902 54.095 12.267 54.095 13.5951C54.095 14.9233 55.1717 16 56.4999 16C57.828 16 58.9048 14.9233 58.9048 13.5951C58.9048 12.267 57.828 11.1902 56.4999 11.1902Z" fill="white"/>
<path d="M68.4522 19V12H69.7522V17.9H73.4122V19H68.4522ZM76.6697 19.07C76.123 19.07 75.6364 18.9533 75.2097 18.72C74.783 18.48 74.4464 18.1533 74.1997 17.74C73.953 17.3267 73.8297 16.8567 73.8297 16.33C73.8297 15.7967 73.953 15.3267 74.1997 14.92C74.4464 14.5067 74.783 14.1833 75.2097 13.95C75.6364 13.7167 76.123 13.6 76.6697 13.6C77.223 13.6 77.713 13.7167 78.1397 13.95C78.573 14.1833 78.9097 14.5033 79.1497 14.91C79.3964 15.3167 79.5197 15.79 79.5197 16.33C79.5197 16.8567 79.3964 17.3267 79.1497 17.74C78.9097 18.1533 78.573 18.48 78.1397 18.72C77.713 18.9533 77.223 19.07 76.6697 19.07ZM76.6697 18C76.9764 18 77.2497 17.9333 77.4897 17.8C77.7297 17.6667 77.9164 17.4733 78.0497 17.22C78.1897 16.9667 78.2597 16.67 78.2597 16.33C78.2597 15.9833 78.1897 15.6867 78.0497 15.44C77.9164 15.1867 77.7297 14.9933 77.4897 14.86C77.2497 14.7267 76.9797 14.66 76.6797 14.66C76.373 14.66 76.0997 14.7267 75.8597 14.86C75.6264 14.9933 75.4397 15.1867 75.2997 15.44C75.1597 15.6867 75.0897 15.9833 75.0897 16.33C75.0897 16.67 75.1597 16.9667 75.2997 17.22C75.4397 17.4733 75.6264 17.6667 75.8597 17.8C76.0997 17.9333 76.3697 18 76.6697 18ZM83.135 21.01C82.6417 21.01 82.1584 20.9433 81.685 20.81C81.2184 20.6833 80.835 20.4967 80.535 20.25L81.095 19.31C81.3284 19.5033 81.6217 19.6567 81.975 19.77C82.335 19.89 82.6984 19.95 83.065 19.95C83.6517 19.95 84.0817 19.8133 84.355 19.54C84.6284 19.2733 84.765 18.87 84.765 18.33V17.38L84.865 16.17L84.825 14.96V13.66H86.015V18.19C86.015 19.1567 85.7684 19.8667 85.275 20.32C84.7817 20.78 84.0684 21.01 83.135 21.01ZM82.975 18.76C82.4684 18.76 82.0084 18.6533 81.595 18.44C81.1884 18.22 80.865 17.9167 80.625 17.53C80.3917 17.1433 80.275 16.69 80.275 16.17C80.275 15.6567 80.3917 15.2067 80.625 14.82C80.865 14.4333 81.1884 14.1333 81.595 13.92C82.0084 13.7067 82.4684 13.6 82.975 13.6C83.4284 13.6 83.835 13.69 84.195 13.87C84.555 14.05 84.8417 14.33 85.055 14.71C85.275 15.09 85.385 15.5767 85.385 16.17C85.385 16.7633 85.275 17.2533 85.055 17.64C84.8417 18.02 84.555 18.3033 84.195 18.49C83.835 18.67 83.4284 18.76 82.975 18.76ZM83.165 17.7C83.4784 17.7 83.7584 17.6367 84.005 17.51C84.2517 17.3767 84.4417 17.1967 84.575 16.97C84.715 16.7367 84.785 16.47 84.785 16.17C84.785 15.87 84.715 15.6067 84.575 15.38C84.4417 15.1467 84.2517 14.97 84.005 14.85C83.7584 14.7233 83.4784 14.66 83.165 14.66C82.8517 14.66 82.5684 14.7233 82.315 14.85C82.0684 14.97 81.875 15.1467 81.735 15.38C81.6017 15.6067 81.535 15.87 81.535 16.17C81.535 16.47 81.6017 16.7367 81.735 16.97C81.875 17.1967 82.0684 17.3767 82.315 17.51C82.5684 17.6367 82.8517 17.7 83.165 17.7ZM90.5421 19V12H91.8421V19H90.5421ZM96.6454 13.6C97.0721 13.6 97.4521 13.6833 97.7854 13.85C98.1254 14.0167 98.3921 14.2733 98.5854 14.62C98.7787 14.96 98.8754 15.4 98.8754 15.94V19H97.6254V16.1C97.6254 15.6267 97.5121 15.2733 97.2854 15.04C97.0654 14.8067 96.7554 14.69 96.3554 14.69C96.0621 14.69 95.8021 14.75 95.5754 14.87C95.3487 14.99 95.1721 15.17 95.0454 15.41C94.9254 15.6433 94.8654 15.94 94.8654 16.3V19H93.6154V13.66H94.8054V15.1L94.5954 14.66C94.7821 14.32 95.0521 14.06 95.4054 13.88C95.7654 13.6933 96.1787 13.6 96.6454 13.6Z" fill="white"/>
</svg>
