<svg width="92" height="31" viewBox="0 0 92 31" fill="none" xmlns="http://www.w3.org/2000/svg">
<path d="M40.3211 20.0199C39.1684 20.0199 38.4639 19.6357 38.0797 18.7391C37.6955 17.8426 37.7595 16.882 38.2078 15.6652C38.592 14.6406 39.1684 13.3598 39.9369 11.8868C40.7694 10.4139 41.4738 9.19713 42.1142 8.30057C42.3704 7.91633 42.6266 7.91633 42.8187 8.10845C43.0748 8.42865 43.2029 8.81289 43.2029 9.38925C43.2029 9.96562 43.0748 10.606 42.7546 11.4385C42.6266 11.7587 42.1783 12.5272 41.5379 13.68C40.8975 14.8327 40.4492 15.7933 40.193 16.3056C39.8088 17.2022 39.6807 17.9066 39.7447 18.4189C39.8088 18.9313 40.0649 19.1874 40.5132 19.1874C41.1536 19.1874 41.8581 18.7391 42.6266 17.9066C43.395 17.0741 44.0354 16.1135 44.4837 15.0888C44.6118 14.7686 44.8039 14.7686 44.932 15.0888C45.1882 15.5371 45.0601 16.1775 44.7399 16.946C44.2916 17.8426 43.6512 18.6111 42.7546 19.1874C42.0502 19.7638 41.1536 20.0199 40.3211 20.0199ZM45.3162 5.73896C45.7005 6.50744 45.6364 7.21188 45.1241 7.78825C44.932 7.98037 44.6758 8.10845 44.2916 7.98037C43.9074 7.91633 43.6512 7.66017 43.395 7.33996C43.2029 6.95572 43.0748 6.50744 43.0748 6.1232C43.1389 5.73896 43.2029 5.41875 43.5231 5.09855C43.7793 4.84239 44.0995 4.77835 44.4197 4.97047C44.8039 5.09855 45.1241 5.35471 45.3162 5.73896Z" fill="white"/>
<path d="M45.3163 14.6406C46.8533 12.5272 48.07 10.7981 48.8385 9.45329C48.9666 8.42864 49.2868 7.66016 49.9272 7.08379C50.2474 6.76359 50.5676 6.63551 50.8878 6.50743C51.208 6.37935 51.4642 6.44339 51.5282 6.63551C51.7203 6.82763 51.6563 7.27591 51.2721 7.98036C51.2721 7.98036 51.144 8.17248 50.8878 8.55672C50.7597 9.58137 50.8238 10.9262 51.0159 12.4632C51.208 14.0001 51.208 15.1529 51.208 15.7292C51.0799 17.3302 50.6957 18.3549 49.7991 18.8672C51.5282 18.2268 52.8731 16.8179 53.8977 14.7046C54.0258 14.5765 54.0898 14.4484 54.2179 14.5125C54.346 14.5125 54.41 14.6406 54.4741 14.7046C54.6662 15.1529 54.5381 15.7933 54.0898 16.6898C53.5135 17.7145 52.745 18.547 51.8484 19.0593C50.8878 19.6357 49.8632 19.9559 48.7104 19.9559C46.5331 20.084 45.0601 19.3155 44.1636 17.7145C43.7793 17.0741 43.5872 16.3056 43.7153 15.409C43.7793 14.5125 44.0995 13.9361 44.6119 13.4878C44.9961 13.1676 45.2523 13.2957 45.2523 13.808C45.2523 13.9361 45.3163 14.0001 45.3163 14.1923C45.2523 14.4484 45.2523 14.5765 45.3163 14.6406ZM48.7745 11.3745C48.07 12.6553 47.0454 14.2563 45.5725 16.2416C45.8286 17.1381 46.1488 17.8426 46.5331 18.3549C46.9173 18.8672 47.4296 19.0593 47.8779 18.9313C48.07 18.8672 48.2622 18.7391 48.3262 18.547C48.4543 18.3549 48.5824 18.0347 48.6464 17.6504C48.7104 17.2662 48.7745 16.882 48.7745 16.5618C48.8385 16.1775 48.8385 15.7292 48.8385 15.2169C48.8385 14.6406 48.8385 14.1923 48.7745 13.8721C48.7745 13.5519 48.7104 13.1036 48.7104 12.5272C48.7104 11.9509 48.7745 11.5666 48.7745 11.3745Z" fill="white"/>
<path d="M57.1638 7.91643C56.2672 7.91643 55.5628 7.66027 55.1785 7.14795C54.9864 6.89179 54.9224 6.76371 55.0505 6.63563C55.1145 6.50754 55.2426 6.50754 55.4987 6.50754C56.2032 6.50754 57.0997 6.50754 57.9963 6.37946C59.085 4.45825 59.8535 3.24149 60.3018 2.60109C60.4298 2.40896 60.5579 2.28088 60.686 2.28088C60.8141 2.28088 60.9422 2.40896 61.0062 2.60109C61.4545 3.56169 61.3264 4.71442 60.686 6.05926C61.5826 6.05926 62.1589 6.37946 62.6072 6.95583C62.7993 7.34007 62.7353 7.53219 62.223 7.53219C61.6466 7.40411 60.8141 7.46815 59.8535 7.66027C57.8682 10.9904 56.5234 13.4879 55.7549 15.153C55.3066 16.2417 55.1145 17.2663 55.1785 17.9708C55.3066 18.8033 55.6909 19.1875 56.3953 19.2516C57.0357 19.2516 57.8042 18.8673 58.5727 18.0348C59.3412 17.2023 60.0456 16.1776 60.686 14.9609C60.75 14.8328 60.8141 14.7687 60.8781 14.7047C61.0062 14.6407 61.0062 14.6407 61.1343 14.7047C61.2624 14.7687 61.2624 14.8328 61.3264 14.9609C61.4545 15.3451 61.3264 15.9215 61.0062 16.69C60.686 17.3304 60.1096 18.0988 59.149 18.9314C58.2525 19.7639 57.1638 20.1481 56.1391 20.0841C55.0505 20.0201 54.2179 19.5077 53.7696 18.4831C53.3214 17.4584 53.3854 16.0496 53.9618 14.3205C54.6022 12.6554 55.6909 10.5421 57.1638 7.91643Z" fill="white"/>
<path d="M79.6419 16.946C79.2577 17.8426 78.6813 18.6111 77.8488 19.1874C77.0163 19.8278 76.1837 20.084 75.3512 20.084C74.1985 20.02 73.366 19.5717 72.9817 18.6751C72.5334 17.7785 72.5334 16.7539 72.8536 15.4731C73.3019 13.8721 74.5827 12.0149 76.696 9.77351C75.4793 10.542 74.2625 10.9262 73.0458 10.9262C71.7009 13.744 70.228 15.9214 68.627 17.5224C67.026 19.1234 65.2969 20.02 63.5678 20.02C61.6466 20.02 60.3658 19.2515 59.7254 17.7145C59.085 16.1135 59.3411 14.3844 60.3658 12.4632C61.2623 10.6701 62.4151 9.38927 63.6959 8.4927C65.0407 7.59614 66.0654 7.40402 66.8979 7.8523C67.6664 8.30058 68.3068 8.8129 68.691 9.38927C69.0112 9.77351 69.0752 10.2858 68.8191 11.1184C68.5629 11.9509 68.2427 12.7194 67.6023 13.4878C66.8338 14.4485 65.9373 15.0889 65.0407 15.281C64.1441 15.4731 63.0555 15.1529 61.9668 14.3844C61.5185 15.7293 61.3904 16.882 61.7106 17.7145C62.0308 18.6111 62.5431 19.0594 63.3116 19.0594C64.8486 19.1234 66.3856 18.2909 67.9225 16.5618C69.4595 14.8327 70.6763 12.8474 71.7009 10.606C71.1245 10.4139 70.8684 9.96563 70.8043 9.45331C70.8043 8.87694 70.9324 8.36462 71.2526 7.78826C71.5728 7.21189 71.9571 6.69957 72.4694 6.31533C72.9177 5.93109 73.3019 5.67493 73.6862 5.67493C74.1344 5.80301 74.3266 6.12321 74.2625 6.82765C74.1985 7.46806 73.9423 8.42866 73.5581 9.45331C74.5187 9.32522 75.6714 8.8129 76.8882 8.04442C77.2724 7.72422 77.5926 7.72422 77.7847 7.91634C78.0409 8.1725 78.233 8.4927 78.4251 8.74886C78.5532 9.06906 78.6813 9.45331 78.6813 9.83755C78.6813 10.2858 78.5532 10.6701 78.2971 10.9262C76.4399 12.9755 75.2872 14.7687 74.7748 16.1775C74.5187 17.0101 74.4546 17.7145 74.6468 18.2268C74.7748 18.8032 75.095 19.0594 75.5433 19.0594C76.1837 19.0594 76.8241 18.6751 77.5286 17.9066C78.233 17.0741 78.8734 16.1135 79.3857 14.8967C79.5138 14.5765 79.7059 14.5125 79.834 14.8327C80.0261 15.5371 80.0261 16.1775 79.6419 16.946ZM62.351 13.744C62.6712 13.9361 62.9274 14.0642 63.2476 14.0642C63.5678 14.0642 63.8239 14.0642 64.0161 13.9361C64.2082 13.808 64.4643 13.744 64.7205 13.5519C64.9767 13.3598 65.1688 13.1676 65.3609 12.9115C65.489 12.7194 65.7452 12.5272 66.0013 12.2711C66.4496 11.6307 66.8979 10.9903 67.154 10.3499C67.4102 9.70947 67.4742 9.26118 67.2821 9.1331C67.09 8.94098 66.6417 9.00502 66.1294 9.26118C65.6171 9.58139 64.9767 10.0937 64.3363 10.7982C63.6959 11.5026 63.1195 12.3351 62.6712 13.1676C62.6712 13.2317 62.6072 13.2957 62.5431 13.4238C62.4151 13.5519 62.351 13.68 62.351 13.744Z" fill="white"/>
<path d="M90.913 16.6899C89.9524 18.2269 87.9671 19.5077 85.0213 20.7244C84.5089 22.0052 84.0607 23.0939 83.6124 23.9265C83.2281 24.823 82.7158 25.7196 82.1394 26.7442C81.5631 27.7689 80.9227 28.6014 80.4104 29.3058C79.834 29.9462 79.1936 30.3945 78.6172 30.6507C77.9768 30.9068 77.3364 30.7147 76.8881 30.0103C76.696 29.6901 76.5679 29.498 76.4399 29.2418C76.3118 29.0497 76.2477 28.7935 76.1197 28.4733C75.9916 28.1531 75.9916 27.8329 75.9916 27.4487C76.0556 27.0644 76.1197 26.6802 76.2477 26.2959C77.0803 23.8624 79.2576 21.9412 82.7799 20.5964C82.8439 20.4683 82.9079 20.1481 83.1641 19.6358C83.4203 19.1234 83.5483 18.7392 83.6764 18.419C82.4596 19.5717 81.435 20.1481 80.3463 20.084C79.3217 19.956 78.6813 19.5077 78.4892 18.5471C78.297 17.6505 78.3611 16.6899 78.8094 15.7293C79.7059 13.2317 81.0508 10.6701 82.972 8.10849C83.2281 7.72425 83.4843 7.72425 83.7405 8.10849C84.4449 9.0691 84.2528 10.4139 83.1641 12.143C82.0754 13.8081 81.3069 15.281 80.7946 16.5618C80.4744 17.3303 80.3463 17.9067 80.4104 18.419C80.4744 18.8673 80.6025 19.1234 80.9867 19.1875C82.0114 19.3155 83.4843 17.7786 85.2774 14.7046C85.5976 14.2564 86.174 13.1677 87.0065 11.5667C87.9031 9.96566 88.5435 8.81294 88.9918 8.23657C89.2479 7.85233 89.5041 7.85233 89.7602 8.04445C90.0164 8.36466 90.1445 8.81294 90.1445 9.3893C90.1445 9.96566 90.0164 10.6061 89.6322 11.5026C87.9031 14.8327 86.5582 17.5865 85.5336 19.7638C87.711 18.6111 89.5041 17.0741 90.977 15.1529C91.1051 15.0248 91.1051 15.0248 91.2972 15.0248C91.4253 15.0248 91.4253 15.1529 91.4893 15.217C91.6174 15.4091 91.4253 15.9855 90.913 16.6899ZM82.3316 21.7491C81.1148 22.3895 80.0902 23.3501 79.2576 24.3747C78.4251 25.4634 77.8487 26.424 77.5926 27.1925C77.3364 28.025 77.3364 28.5374 77.5285 28.7935C77.6566 28.9856 77.9768 28.7935 78.4892 28.2172C79.0015 27.6408 79.6419 26.7442 80.3463 25.5275C81.1148 24.4388 81.7552 23.158 82.3316 21.7491Z" fill="white"/>
<path d="M29.0501 17.9067C30.7792 17.4584 32.3802 17.1382 33.661 17.0101C35.0699 16.882 35.9665 17.3943 36.3507 18.3549C36.4788 18.6751 36.3507 18.8032 36.0305 18.8032C34.7497 18.8032 32.5083 19.1875 29.3703 19.9559C28.9861 20.084 28.7299 20.084 28.5378 20.084C28.3457 20.02 28.1535 19.9559 28.0255 19.6998C27.6412 19.1234 27.3851 18.6751 27.257 18.3549C27.0649 17.9067 27.1289 17.2663 27.3851 16.6259C28.0895 14.7687 29.4343 12.079 31.3556 8.55677C33.3408 4.97052 34.7497 2.47294 35.7103 1.19214C36.0305 0.807896 36.2226 0.807896 36.4147 1.25618C36.9911 2.28082 36.7349 3.68971 35.7103 5.54688C35.6463 5.67496 35.0699 6.63556 33.9812 8.55677C32.8925 10.478 31.996 12.143 31.2275 13.5519C30.459 15.0248 29.7545 16.4978 29.0501 17.9067Z" fill="white"/>
<path d="M21.8123 16.687C21.8123 18.9245 19.9602 20.7785 17.6611 20.7785H6.54856C4.24942 20.7785 2.39734 18.9885 2.39734 16.687V5.69092C2.39734 3.38942 4.24942 1.59937 6.54856 1.59937H17.7249C20.0241 1.59937 21.8762 3.38942 21.8762 5.69092L21.8123 16.687Z" fill="white"/>
<path fill-rule="evenodd" clip-rule="evenodd" d="M11.1188 8.87694C10.8626 9.45331 10.3503 9.90159 9.77394 9.90159L7.91677 10.0297C7.72465 10.0297 7.59656 10.3499 7.78868 10.478L9.06949 11.5666C9.58181 11.9509 9.77394 12.6553 9.64585 13.2957L9.26161 15.0889C9.19757 15.345 9.45373 15.4731 9.64585 15.345L11.1188 14.2563C11.6951 13.8721 12.3996 13.8721 12.9119 14.2563L14.3848 15.345C14.577 15.4731 14.8331 15.281 14.7691 15.0889L14.3848 13.2957C14.2568 12.6553 14.4489 11.9509 14.9612 11.5666L16.242 10.478C16.4341 10.3499 16.306 10.0297 16.1139 10.0297L14.2568 9.90159C13.6804 9.83755 13.104 9.45331 12.9119 8.87694L12.2715 7.14786C12.2075 6.95573 11.8873 6.95573 11.8232 7.14786L11.1188 8.87694ZM13.5523 6.57149L14.1927 8.30058C14.1927 8.36462 14.2568 8.42866 14.3208 8.42866L16.178 8.55674C17.7149 8.68482 18.2913 10.7341 17.0745 11.7588L15.7937 12.8474C15.7297 12.9115 15.7297 12.9755 15.7297 13.0396L16.1139 14.8327C16.4341 16.4337 14.7691 17.6505 13.5523 16.6899L12.0794 15.6012C12.0153 15.5371 11.9513 15.5371 11.8873 15.6012L10.4143 16.6899C9.13353 17.6505 7.46848 16.4337 7.85273 14.8327L8.23697 13.0396C8.23697 12.9755 8.23697 12.9115 8.17293 12.8474L6.89212 11.7588C5.67535 10.7341 6.31576 8.68482 7.78868 8.55674L9.64585 8.42866C9.70989 8.42866 9.77394 8.36462 9.77394 8.30058L10.4143 6.57149C11.0547 5.09857 12.976 5.09857 13.5523 6.57149Z" fill="url(#paint0_linear_627_1205)"/>
<defs>
<linearGradient id="paint0_linear_627_1205" x1="12.0153" y1="5.48281" x2="12.0153" y2="16.9831" gradientUnits="userSpaceOnUse">
<stop stop-color="#EAAF59"/>
<stop offset="1" stop-color="#D96D40"/>
</linearGradient>
</defs>
</svg>
