<svg width="102" height="102" viewBox="0 0 102 102" fill="none" xmlns="http://www.w3.org/2000/svg">
<rect x="1" y="1" width="100" height="100" rx="6" stroke="#9295A9" stroke-dasharray="4 4"/>
<path fill-rule="evenodd" clip-rule="evenodd" d="M46.2854 51.7025C46.2854 49.1004 48.3338 46.9834 50.8516 46.9834C53.3694 46.9834 55.4178 49.1004 55.4178 51.7025C55.4178 54.3047 53.3694 56.4217 50.8516 56.4217C48.3338 56.4217 46.2854 54.3047 46.2854 51.7025ZM47.7466 51.7025C47.7466 53.472 49.1395 54.9115 50.8516 54.9115C52.5637 54.9115 53.9566 53.472 53.9566 51.7025C53.9566 49.9331 52.5637 48.4935 50.8516 48.4935C49.1395 48.4935 47.7466 49.9331 47.7466 51.7025Z" fill="#BABFCB" fill-opacity="0.73"/>
<path fill-rule="evenodd" clip-rule="evenodd" d="M55.3237 44.7182H58.0114C59.2199 44.7182 60.2031 45.7344 60.2031 46.9834V57.1767C60.2031 58.4257 59.2199 59.4419 58.0114 59.4419H43.6918C42.4832 59.4419 41.5 58.4257 41.5 57.1767V46.9834C41.5 45.7344 42.4832 44.7182 43.6918 44.7182H46.4315C46.5166 44.7182 46.5932 44.6702 46.6327 44.5927L47.3763 42.9778L47.3825 42.9647C47.6703 42.3696 48.249 42 48.8927 42H52.8625C53.5062 42 54.0849 42.3696 54.3727 42.9646L54.3789 42.9778L55.1225 44.5926C55.1619 44.6702 55.2386 44.7182 55.3237 44.7182ZM58.0114 57.9317C58.4142 57.9317 58.7419 57.593 58.7419 57.1767V46.9834C58.7419 46.567 58.4142 46.2283 58.0114 46.2283H55.3237C54.68 46.2283 54.1013 45.8587 53.8135 45.2637L53.8072 45.2505L53.0636 43.6356C53.0242 43.5581 52.9476 43.5101 52.8625 43.5101H48.8927C48.8076 43.5101 48.731 43.5581 48.6916 43.6356L47.948 45.2505L47.9417 45.2637C47.6538 45.8587 47.0751 46.2283 46.4315 46.2283H43.6918C43.2889 46.2283 42.9612 46.5671 42.9612 46.9834V57.1767C42.9612 57.593 43.2889 57.9317 43.6918 57.9317H58.0114Z" fill="#BABFCB" fill-opacity="0.73"/>
<rect x="55.8196" y="47.7385" width="1.46118" height="1.51012" fill="#BABFCB" fill-opacity="0.73"/>
</svg>