<svg width="14" height="15" viewBox="0 0 14 15" fill="none" xmlns="http://www.w3.org/2000/svg">
<path fill-rule="evenodd" clip-rule="evenodd" d="M0.46868 7.5235L6.90166 0.784191C7.16117 0.51232 7.52008 0.371044 7.88627 0.39662L11.5492 0.652446C12.5035 0.719095 13.2635 1.51524 13.3271 2.51498L13.5713 6.35235C13.5957 6.73598 13.4608 7.11198 13.2013 7.38385L6.76836 14.1232C6.27133 14.6439 5.46548 14.6439 4.96845 14.1232L0.46868 9.40912C-0.0283513 8.88842 -0.0283513 8.0442 0.46868 7.5235ZM1.36863 8.46631L5.8684 13.1804L12.3014 6.44104L12.0572 2.60367C12.036 2.27042 11.7827 2.00504 11.4646 1.98283L7.80161 1.727L1.36863 8.46631ZM9.9182 6.10929C10.4152 5.58859 10.4152 4.74437 9.9182 4.22367C9.42117 3.70297 8.61532 3.70297 8.11829 4.22367C7.62126 4.74437 7.62126 5.58859 8.11829 6.10929C8.61532 6.62999 9.42117 6.62999 9.9182 6.10929Z" fill="#BBBFCA"/>
</svg>
