<svg width="14" height="12" viewBox="0 0 14 12" fill="none" xmlns="http://www.w3.org/2000/svg">
<path fill-rule="evenodd" clip-rule="evenodd" d="M3.375 0.5C2.96079 0.5 2.625 0.835786 2.625 1.25C2.625 1.66421 2.96079 2 3.375 2H13.25C13.6642 2 14 1.66421 14 1.25C14 0.835786 13.6642 0.5 13.25 0.5H3.375ZM2.625 5.83333C2.625 5.41912 2.96079 5.08333 3.375 5.08333H13.25C13.6642 5.08333 14 5.41912 14 5.83333C14 6.24755 13.6642 6.58333 13.25 6.58333H3.375C2.96079 6.58333 2.625 6.24755 2.625 5.83333ZM2.625 10.4167C2.625 10.0025 2.96079 9.66667 3.375 9.66667H13.25C13.6642 9.66667 14 10.0025 14 10.4167C14 10.8309 13.6642 11.1667 13.25 11.1667H3.375C2.96079 11.1667 2.625 10.8309 2.625 10.4167Z" fill="#BBBFCA"/>
<path fill-rule="evenodd" clip-rule="evenodd" d="M0.875 0.5C0.391751 0.5 0 0.891751 0 1.375V1.45833C0 1.94158 0.391751 2.33333 0.875 2.33333C1.35825 2.33333 1.75 1.94158 1.75 1.45833V1.375C1.75 0.891751 1.35825 0.5 0.875 0.5ZM0 5.95833C0 5.47508 0.391751 5.08333 0.875 5.08333C1.35825 5.08333 1.75 5.47508 1.75 5.95833V6.04167C1.75 6.52492 1.35825 6.91667 0.875 6.91667C0.391751 6.91667 0 6.52492 0 6.04167V5.95833ZM0 10.5417C0 10.0584 0.391751 9.66667 0.875 9.66667C1.35825 9.66667 1.75 10.0584 1.75 10.5417V10.625C1.75 11.1082 1.35825 11.5 0.875 11.5C0.391751 11.5 0 11.1082 0 10.625V10.5417Z" fill="#BBBFCA"/>
</svg>
